<mxfile host="app.diagrams.net" modified="2024-07-10T07:19:36.250Z" agent="Mozilla/5.0 (Windows NT 10.0; Win64; x64) AppleWebKit/537.36 (KHTML, like Gecko) Chrome/126.0.0.0 Safari/537.36 Edg/126.0.0.0" version="24.6.4" etag="lOabZde90rVzYN-LplTI" type="github">
  <diagram name="Страница — 1" id="sU09XzG3Iqhb_exudcgU">
    <mxGraphModel>
      <root>
        <mxCell id="0" />
        <mxCell id="1" parent="0" />
      </root>
    </mxGraphModel>
  </diagram>
</mxfile>
